PathFileType	4	(X/Y/Z)	\\147.46.242.158\로컬 디스크 (e)\MOCAP Data\Iguana Capture\iguana\Project 2\Capture day 7\Session 2\Take14.trc
DataRate	CameraRate	NumFrames	NumMarkers	Units	OrigDataRate	OrigDataStartFrame	OrigNumFrames
120.0	120.0	11	23	mm	120.0	116	5026
Frame#	Time	ana:head1			ana:head2			ana:bone1			ana:bone2			ana:bone3			ana:tail1			ana:tail2			ana:tail3			ana:tail4			ana:Rforefoot1			ana:Rforefoot2			ana:Rforefoot3			ana:Lforefoot1			ana:Lforefoot2			ana:Lforefoot3			ana:RhindLeg1			ana:RhindLeg2			ana:RhindLeg3			ana:RhindLeg4			ana:LhindLeg1			ana:LhindLeg2			ana:LhindLeg3			ana:LhindLeg4			
		X1	Y1	Z1	X2	Y2	Z2	X3	Y3	Z3	X4	Y4	Z4	X5	Y5	Z5	X6	Y6	Z6	X7	Y7	Z7	X8	Y8	Z8	X9	Y9	Z9	X10	Y10	Z10	X11	Y11	Z11	X12	Y12	Z12	X13	Y13	Z13	X14	Y14	Z14	X15	Y15	Z15	X16	Y16	Z16	X17	Y17	Z17	X18	Y18	Z18	X19	Y19	Z19	X20	Y20	Z20	X21	Y21	Z21	X22	Y22	Z22	X23	Y23	Z23	

2866	23.875	471.57440	180.04572	43.84121	460.93320	180.08775	45.47716	439.32977	173.64285	39.45444	411.17233	166.57855	38.23768	377.36533	169.38266	33.29056	347.27115	178.05022	25.76340	311.44199	185.07565	14.69815	273.13440	197.58241	6.96642	237.48119	220.10809	5.23268	445.40704	165.26758	24.41975	444.35233	149.55472	26.50341	459.69232	148.28238	15.58138	435.00113	184.95908	23.85475	425.86285	193.99399	19.66574	427.49438	192.88199	2.79045	373.81583	159.01372	25.42399	367.35596	142.41246	16.62154	353.33008	144.70180	3.45901	363.72052	144.11719	2.47498	378.46704	178.39525	27.38834	385.76010	193.17284	26.84568	368.58020	196.85571	16.01366	373.51352	206.31123	13.39108	
2867	23.883	472.96423	180.76311	43.84511	462.34946	180.83778	45.35055	440.72604	174.27251	39.32580	412.80203	166.53972	38.11572	379.20456	169.14630	33.26914	349.04022	178.36391	25.76922	313.15659	185.31010	14.82521	274.58340	197.24426	7.03075	238.54683	219.03542	5.21846	447.56738	166.00409	24.30808	448.15759	150.23392	25.48016	464.48013	151.28175	16.28580	436.12357	185.74330	24.19926	426.59756	194.07030	19.85453	427.63828	192.97762	2.97224	375.26520	159.00446	25.36610	368.15060	142.35893	16.62831	353.51990	144.59352	4.19288	364.02966	144.05656	2.49785	380.47348	178.14023	27.44630	389.47507	192.37804	26.90690	373.71954	198.77325	15.57032	380.43634	207.21515	13.38237	
2868	23.892	474.39151	181.46555	43.85106	463.79507	181.56384	45.25016	442.21085	174.83105	39.20202	414.45322	166.57404	38.04298	381.04214	168.96776	33.27172	350.82224	178.67798	25.86312	314.89240	185.52473	14.99799	276.06036	196.89029	7.13134	239.66985	218.01155	5.20379	449.82422	166.67110	24.05936	452.05276	151.18602	24.26345	468.78101	154.43744	16.54315	437.27304	186.56422	24.52051	427.40918	194.15895	20.04737	427.87509	193.14348	3.23073	376.75592	159.03625	25.39198	368.96179	142.36301	16.78535	353.82788	144.43889	5.06300	364.38837	143.86203	2.57338	382.58447	177.93410	27.59302	393.01447	191.66658	26.97060	379.23932	200.83507	15.18092	387.43066	207.90314	13.42463	
2869	23.900	475.85443	182.13390	43.82230	465.25153	182.24004	45.16275	443.76190	175.29207	39.09072	416.14264	166.70354	38.01890	382.78644	168.91411	33.32996	352.61337	178.97473	26.00974	316.62698	185.70952	15.21852	277.57962	196.51001	7.26699	240.84764	217.03714	5.18106	452.10080	167.39464	23.77905	455.93167	152.36844	22.88803	472.68274	157.55641	16.30840	438.53683	187.22780	24.61117	428.31281	194.27039	20.23905	428.18027	193.31908	3.56711	378.28836	159.12683	25.45276	369.84756	142.55655	17.03533	354.20776	144.29735	6.02262	364.74878	143.63507	2.71736	384.68219	177.82817	27.76216	396.36386	191.00343	27.03548	384.99033	202.69476	14.75826	394.25674	208.16806	13.36474	
2870	23.908	477.39703	182.79440	43.79044	466.75970	182.89928	45.11636	445.42487	175.66820	39.02514	417.84415	166.91153	38.02290	384.59375	168.94281	33.42248	354.43060	179.28914	26.18684	318.36902	185.88095	15.44777	279.12781	196.13525	7.40267	242.10625	216.08394	5.17467	454.33893	168.15698	23.43759	459.68555	153.90273	21.39654	476.20981	160.56230	15.51557	439.91644	187.73805	24.53755	429.31467	194.40971	20.39946	428.45987	193.11525	3.67488	379.87094	159.29230	25.54102	370.81570	142.77286	17.42487	354.65448	144.24232	6.94704	365.07257	143.33218	2.97738	386.76636	177.77588	27.91721	399.45636	190.49660	27.01938	390.72937	204.12273	14.24007	400.74545	208.03853	13.15539	
2871	23.917	479.05908	183.43898	43.73038	468.34103	183.37608	45.08057	447.16946	176.01746	39.01402	419.59393	167.15256	38.04972	386.46436	169.02350	33.56174	356.28238	179.61153	26.40886	320.13190	186.06693	15.70896	280.72336	195.78210	7.54882	243.42235	215.12648	5.17324	456.54483	169.01546	23.01035	463.17773	155.61188	19.89917	479.41537	163.30533	14.21114	441.43390	188.14868	24.32462	430.40955	194.58270	20.50603	428.65744	192.22005	3.32488	381.52448	159.52226	25.68495	371.85278	143.21878	17.83340	355.16626	144.35649	7.79258	365.35620	143.06735	3.29471	388.80630	177.82649	28.03390	402.35971	190.08859	26.89533	396.15848	205.00656	13.50711	406.63177	207.59161	12.60774	
2872	23.925	480.79196	184.06062	43.62594	470.04688	183.81619	44.97434	448.96658	176.41696	38.98367	421.39966	167.46143	38.07494	388.40619	169.18785	33.71597	358.17212	179.93776	26.66132	321.91904	186.27348	15.98564	282.39536	195.45929	7.68060	244.78778	214.14935	5.13789	458.66287	169.94440	22.53691	466.36938	157.46982	18.39455	482.29437	165.72948	12.44821	442.95889	188.55305	24.14555	431.62433	194.72816	20.56257	428.73114	190.71432	2.51474	383.25259	159.80627	25.84428	372.98752	143.76663	18.26530	355.75473	144.70908	8.53083	365.66614	142.99484	3.56877	390.84729	177.99004	28.12185	405.06216	189.84734	26.58211	400.89258	205.33177	12.55950	411.63715	207.02966	11.61689	
2873	23.933	482.62280	184.67519	43.44966	471.87698	184.24286	44.77922	450.82965	176.91841	38.92070	423.27298	167.79097	38.08202	390.35410	169.40623	33.86441	360.12091	180.26448	26.90268	323.75671	186.53122	16.27011	284.12234	195.22313	7.80430	246.20177	213.14378	5.13527	460.76984	170.81487	22.03990	469.19974	159.35696	16.91853	484.83893	167.75159	10.33907	444.52039	188.78647	23.88014	432.96298	194.89941	20.57371	428.85834	189.21654	1.67925	385.06204	160.14423	26.05031	374.21262	144.38831	18.70201	356.42416	145.28813	9.15904	366.01331	143.18086	3.79721	392.90485	178.23390	28.17575	407.51178	189.90182	26.07121	404.69485	205.30659	11.36071	415.56506	206.53711	10.21551	
2874	23.942	484.52640	185.27049	43.16574	473.82825	184.61717	44.53898	452.77859	177.48682	38.76423	425.18106	168.20770	38.07485	392.35785	169.68890	34.00436	362.11182	180.63887	27.17606	325.64511	186.83722	16.56935	285.91321	195.05150	7.96864	247.65250	212.12163	5.12279	462.83292	171.60956	21.52260	471.60767	160.95053	15.53514	486.95795	169.25124	8.09175	446.11929	188.95778	23.54371	434.45584	195.12367	20.54060	429.19806	188.56049	1.35127	386.95395	160.53566	26.26026	375.56461	145.07169	19.18266	357.19339	145.96992	9.86030	366.41647	143.50125	3.98962	395.00439	178.57222	28.20531	409.66534	190.24545	25.37296	407.37848	205.06989	9.91065	418.25519	206.25656	8.48686	
2875	23.950	486.52081	185.80051	42.82185	475.87878	185.02289	44.17742	454.77353	178.06390	38.53970	427.19351	168.71329	38.01041	394.39746	170.03972	34.10257	364.14868	181.01573	27.44528	327.57950	187.18657	16.89986	287.73648	194.94298	8.19054	249.13112	211.09116	5.13074	464.88983	172.25516	20.98403	473.62476	162.08379	14.28523	488.63950	170.19389	5.98091	447.81534	189.06332	23.14630	436.14673	195.42784	20.47203	429.88733	188.10809	0.91498	388.92593	160.98647	26.44821	377.03696	145.77635	19.66145	358.09299	146.73914	10.58557	366.89520	143.92323	4.16576	397.06433	179.05048	28.15355	411.54388	190.89667	24.50521	409.01355	204.77867	8.34823	419.87817	206.10774	6.66946	
2876	23.958	488.64465	186.25450	42.46736	478.07040	185.45657	43.80671	456.87158	178.63797	38.26262	429.25616	169.29668	37.88784	396.45209	170.47092	34.14134	366.20303	181.40437	27.69208	329.54712	187.56248	17.24603	289.57358	194.89207	8.46073	250.63243	210.08917	5.16691	466.91684	172.72693	20.45643	475.24353	162.69279	13.21684	489.86206	170.63487	4.18532	449.67175	189.47168	22.88099	438.02319	195.81229	20.31078	430.92859	187.22777	-0.13367	390.95541	161.46529	26.61142	378.62384	146.48395	20.15373	359.08612	147.49940	11.35177	367.45251	144.40720	4.31374	399.12949	179.63319	28.05940	413.13522	191.77744	23.56682	409.77826	204.52142	6.79704	420.65958	206.11609	5.09072	
